<svg width="32" height="27" viewBox="0 0 32 27" fill="none" xmlns="http://www.w3.org/2000/svg">
<path d="M2 7C2 4.41737 2.66667 2 6.66667 2H25.6667C28.6667 2 30 4.33333 30 7V17.2066C30 20.3628 27.9998 21.798 24.9998 21.798H13.6667L9.6665 24.6667L9.33317 21.5105H6.66667C3.6665 21.5099 1.99984 19.7889 2 17.2066V7Z" stroke="#323232" stroke-width="2.5"/>
<g filter="url(#filter0_d_14_1257)">
<ellipse cx="9.13387" cy="11.8" rx="1.80001" ry="1.79997" fill="white"/>
<ellipse cx="16.3343" cy="11.7997" rx="1.80001" ry="1.79997" fill="white"/>
<ellipse cx="23.533" cy="11.7997" rx="1.80001" ry="1.79997" fill="white"/>
</g>
<path d="M2 7C2 4.41737 2.66667 2 6.66667 2H25.6667C28.6667 2 30 4.33333 30 7V17.2066C30 20.3628 27.9998 21.798 24.9998 21.798H13.6667L9.6665 24.6667L9.33317 21.5105H6.66667C3.6665 21.5099 1.99984 19.7889 2 17.2066V7Z" fill="white" stroke="#323232" stroke-width="2.5"/>
<ellipse cx="8.78619" cy="11.7864" rx="1.78619" ry="1.78617" fill="#323232"/>
<ellipse cx="15.9321" cy="11.7862" rx="1.78619" ry="1.78617" fill="#323232"/>
<path d="M25.0444 11.7862C25.0444 12.7727 24.2447 13.5723 23.2582 13.5723C22.2717 13.5723 21.472 12.7727 21.472 11.7862C21.472 10.7997 22.2717 10 23.2582 10C24.2447 10 25.0444 10.7997 25.0444 11.7862Z" fill="#323232"/>
<defs>
<filter id="filter0_d_14_1257" x="3.33386" y="9.99976" width="25.9991" height="11.6002" filterUnits="userSpaceOnUse" color-interpolation-filters="sRGB">
<feFlood flood-opacity="0" result="BackgroundImageFix"/>
<feColorMatrix in="SourceAlpha" type="matrix" values="0 0 0 0 0 0 0 0 0 0 0 0 0 0 0 0 0 0 127 0" result="hardAlpha"/>
<feOffset dy="4"/>
<feGaussianBlur stdDeviation="2"/>
<feColorMatrix type="matrix" values="0 0 0 0 0 0 0 0 0 0 0 0 0 0 0 0 0 0 0.25 0"/>
<feBlend mode="normal" in2="BackgroundImageFix" result="effect1_dropShadow_14_1257"/>
<feBlend mode="normal" in="SourceGraphic" in2="effect1_dropShadow_14_1257" result="shape"/>
</filter>
</defs>
</svg>
