<svg width="23" height="24" viewBox="0 0 23 24" fill="none" xmlns="http://www.w3.org/2000/svg">
<path fill-rule="evenodd" clip-rule="evenodd" d="M19.608 12.0774C19.608 11.4459 19.5536 10.8386 19.4526 10.2557H11.4V13.7008H16.0015C15.8033 14.8141 15.2009 15.7573 14.2954 16.3888V18.6235H17.0586C18.6753 17.073 19.608 14.7898 19.608 12.0774Z" fill="#4285F4"/>
<path fill-rule="evenodd" clip-rule="evenodd" d="M11.4 20.7813C13.7085 20.7813 15.6439 19.9837 17.0585 18.6235L14.2953 16.3889C13.5297 16.9232 12.5504 17.239 11.4 17.239C9.1731 17.239 7.28822 15.6723 6.61588 13.5672H3.7594V15.8747C5.16626 18.7855 8.05772 20.7813 11.4 20.7813Z" fill="#34A853"/>
<path fill-rule="evenodd" clip-rule="evenodd" d="M6.61586 13.5672C6.44486 13.0328 6.3477 12.462 6.3477 11.875C6.3477 11.288 6.44486 10.7172 6.61586 10.1828V7.87531H3.75938C3.18032 9.07765 2.84998 10.4379 2.84998 11.875C2.84998 13.3122 3.18032 14.6724 3.75938 15.8747L6.61586 13.5672Z" fill="#FBBC05"/>
<path fill-rule="evenodd" clip-rule="evenodd" d="M11.4 6.51101C12.6553 6.51101 13.7823 6.96037 14.6684 7.8429L17.1207 5.28842C15.64 3.85128 13.7046 2.96875 11.4 2.96875C8.05772 2.96875 5.16626 4.96456 3.7594 7.87528L6.61588 10.1828C7.28822 8.0777 9.1731 6.51101 11.4 6.51101Z" fill="#EA4335"/>
</svg>
