<svg width="40" height="40" viewBox="0 0 40 40" fill="none" xmlns="http://www.w3.org/2000/svg">
<mask id="mask0_114_2328" style="mask-type:alpha" maskUnits="userSpaceOnUse" x="0" y="0" width="40" height="40">
<path d="M0 20C0 8.9543 8.9543 0 20 0C31.0457 0 40 8.9543 40 20C40 31.0457 31.0457 40 20 40C8.9543 40 0 31.0457 0 20Z" fill="#C4C4C4"/>
</mask>
<g mask="url(#mask0_114_2328)">
<path d="M0 20C0 8.9543 8.95431 0 20 0C31.0457 0 40 8.9543 40 20C40 31.0457 31.0457 40 20 40C8.95431 40 0 31.0457 0 20Z" fill="#B6B6B6"/>
<circle cx="19.5" cy="16.5" r="8" stroke="white" stroke-width="3"/>
<circle cx="19.5" cy="48.5" r="20" stroke="white" stroke-width="3"/>
</g>
</svg>
